<svg width="100" height="100" viewBox="0 0 100 100" fill="none" xmlns="http://www.w3.org/2000/svg">
<g clip-path="url(#clip0_910_21)">
<path fill-rule="evenodd" clip-rule="evenodd" d="M50.0011 2.08334C38.1312 2.0895 26.6505 6.29359 17.6119 13.9439C8.57334 21.5941 2.56624 32.1917 0.664748 43.8417C-1.23675 55.4916 1.09134 67.4342 7.23277 77.5341C13.3742 87.6339 22.9285 95.2323 34.1872 98.9707C36.671 99.4317 37.6066 97.8923 37.6066 96.5833C37.6066 95.2744 37.5569 91.4792 37.5404 87.3301C23.6308 90.3349 20.6916 81.4604 20.6916 81.4604C18.423 75.6977 15.1443 74.1829 15.1443 74.1829C10.6071 71.104 15.4838 71.1616 15.4838 71.1616C20.5095 71.5156 23.1506 76.2904 23.1506 76.2904C27.605 83.8889 34.8495 81.6909 37.6977 80.4066C38.1448 77.1877 39.4447 74.9979 40.877 73.7548C29.7659 72.5035 18.0918 68.2391 18.0918 49.1893C18.0229 44.2488 19.8667 39.4711 23.2417 35.8445C22.7284 34.5932 21.0145 29.5385 23.7302 22.6726C23.7302 22.6726 27.9279 21.339 37.4825 27.7685C45.6778 25.5401 54.3244 25.5401 62.5197 27.7685C72.066 21.339 76.2554 22.6726 76.2554 22.6726C78.9794 29.522 77.2655 34.5767 76.7522 35.8445C80.1378 39.4716 81.9855 44.2577 81.9103 49.2057C81.9103 68.2967 70.2114 72.5035 59.0837 73.7301C60.8721 75.2778 62.47 78.2991 62.47 82.9422C62.47 89.594 62.4121 94.9451 62.4121 96.5833C62.4121 97.9087 63.3145 99.4564 65.848 98.9707C77.1081 95.2319 86.6633 87.6321 92.8046 77.5306C98.9459 67.429 101.273 55.4846 99.3692 43.8335C97.4655 32.1825 91.4554 21.5848 82.4138 13.9359C73.3723 6.28691 61.8889 2.0856 50.0176 2.08334H50.0011Z" fill="#191717"/>
<path d="M18.9351 73.4667C18.8275 73.7137 18.4301 73.7878 18.1072 73.6149C17.7843 73.442 17.5442 73.1209 17.6601 72.8657C17.776 72.6105 18.1652 72.5447 18.4881 72.7175C18.811 72.8904 19.0593 73.2197 18.9351 73.4667Z" fill="#191717"/>
<path d="M20.9637 75.7141C20.7922 75.8 20.596 75.824 20.4087 75.7819C20.2215 75.7399 20.0547 75.6344 19.937 75.4836C19.6141 75.1378 19.5478 74.6604 19.7962 74.4463C20.0446 74.2323 20.4917 74.3311 20.8146 74.6768C21.1375 75.0226 21.212 75.5001 20.9637 75.7141Z" fill="#191717"/>
<path d="M22.9344 78.5708C22.628 78.7848 22.1064 78.5708 21.8166 78.1427C21.7365 78.0659 21.6728 77.9738 21.6292 77.872C21.5857 77.7701 21.5632 77.6606 21.5632 77.55C21.5632 77.4393 21.5857 77.3298 21.6292 77.2279C21.6728 77.1261 21.7365 77.034 21.8166 76.9572C22.123 76.7514 22.6446 76.9572 22.9344 77.3771C23.2242 77.7969 23.2324 78.3567 22.9344 78.5708V78.5708Z" fill="#191717"/>
<path d="M25.6085 81.3368C25.3353 81.6414 24.7806 81.5591 24.3252 81.1475C23.8698 80.7359 23.7622 80.1761 24.0354 79.8797C24.3086 79.5833 24.8634 79.6657 25.3353 80.069C25.8072 80.4724 25.8983 81.0405 25.6085 81.3368V81.3368Z" fill="#191717"/>
<path d="M29.359 82.9504C29.2348 83.3373 28.6718 83.5102 28.1088 83.3455C27.5458 83.1809 27.1732 82.7199 27.2809 82.3247C27.3885 81.9296 27.9598 81.7484 28.5311 81.9296C29.1024 82.1107 29.4666 82.547 29.359 82.9504Z" fill="#191717"/>
<path d="M33.4493 83.2303C33.4493 83.6337 32.9857 83.9794 32.3895 83.9877C31.7934 83.9959 31.3049 83.6666 31.3049 83.2632C31.3049 82.8598 31.7686 82.5141 32.3647 82.5058C32.9608 82.4976 33.4493 82.8187 33.4493 83.2303Z" fill="#191717"/>
<path d="M37.2579 82.5964C37.3325 82.9998 36.9185 83.4196 36.3223 83.5184C35.7262 83.6172 35.2046 83.3785 35.1301 82.9833C35.0556 82.5882 35.4861 82.1601 36.0657 82.0531C36.6453 81.9461 37.1834 82.193 37.2579 82.5964Z" fill="#191717"/>
</g>
<defs>
<clipPath id="clip0_910_21">
<rect width="100" height="100" fill="white"/>
</clipPath>
</defs>
</svg>
