<svg width="100" height="100" viewBox="0 0 100 100" fill="none" xmlns="http://www.w3.org/2000/svg">
<path d="M0 50C0 22.3858 22.3858 0 50 0C77.6142 0 100 22.3858 100 50C100 77.6142 77.6142 100 50 100C22.3858 100 0 77.6142 0 50Z" fill="#FF0000"/>
<path d="M75.5521 37.6526C74.9388 35.2963 73.1315 33.4408 70.8367 32.8111C66.6779 31.6667 50 31.6667 50 31.6667C50 31.6667 33.3221 31.6667 29.163 32.8111C26.8682 33.4408 25.0609 35.2963 24.4476 37.6526C23.3333 41.923 23.3333 50.8334 23.3333 50.8334C23.3333 50.8334 23.3333 59.7434 24.4476 64.0142C25.0609 66.3704 26.8682 68.2259 29.163 68.8559C33.3221 70 50 70 50 70C50 70 66.6779 70 70.8367 68.8559C73.1315 68.2259 74.9388 66.3704 75.5521 64.0142C76.6667 59.7434 76.6667 50.8334 76.6667 50.8334C76.6667 50.8334 76.6667 41.923 75.5521 37.6526" fill="white"/>
<path d="M45 60V43.3333L58.3333 51.667L45 60Z" fill="#FF0000"/>
</svg>
