<svg width="100" height="100" viewBox="0 0 100 100" fill="none" xmlns="http://www.w3.org/2000/svg">
<g clip-path="url(#clip0_17_47)">
<path d="M98.0083 25.7727C97.4429 23.6453 96.3287 21.7037 94.7772 20.1421C93.2256 18.5806 91.2911 17.454 89.1674 16.875C81.3492 14.7727 50.0992 14.7727 50.0992 14.7727C50.0992 14.7727 18.8492 14.7727 11.031 16.875C8.90722 17.454 6.97276 18.5806 5.42121 20.1421C3.86967 21.7037 2.75546 23.6453 2.19009 25.7727C0.0991824 33.625 0.0991821 50 0.0991821 50C0.0991821 50 0.0991824 66.375 2.19009 74.2273C2.75546 76.3547 3.86967 78.2964 5.42121 79.8579C6.97276 81.4194 8.90722 82.546 11.031 83.125C18.8492 85.2273 50.0992 85.2273 50.0992 85.2273C50.0992 85.2273 81.3492 85.2273 89.1674 83.125C91.2911 82.546 93.2256 81.4194 94.7772 79.8579C96.3287 78.2964 97.4429 76.3547 98.0083 74.2273C100.099 66.375 100.099 50 100.099 50C100.099 50 100.099 33.625 98.0083 25.7727Z" fill="#FF0302"/>
<path d="M39.8719 64.8695V35.1308L66.0083 50.0001L39.8719 64.8695Z" fill="#FEFEFE"/>
</g>
<defs>
<clipPath id="clip0_17_47">
<rect width="100" height="100" fill="white"/>
</clipPath>
</defs>
</svg>
